<svg width="54" height="54" viewBox="0 0 54 54" fill="none" xmlns="http://www.w3.org/2000/svg">
<rect width="54" height="54" rx="27" fill="white"/>
<path fill-rule="evenodd" clip-rule="evenodd" d="M28.7174 36.0762L32.4838 32.3098C32.4998 32.2937 32.5146 32.2776 32.5293 32.2616C32.5293 32.2616 33.1848 31.5136 34.1243 30.4387C36.0182 28.274 36.9149 25.4124 36.5946 22.5548C36.2742 19.6972 34.7664 17.105 32.4409 15.4135L32.4382 15.4121C29.2321 13.0799 24.8867 13.0799 21.6792 15.4121C21.6779 15.4121 21.6779 15.4135 21.6765 15.4135C19.351 17.105 17.8432 19.6972 17.5228 22.5548C17.2038 25.4124 18.0992 28.274 19.9931 30.4387C20.934 31.5136 21.5881 32.2616 21.5881 32.2616C21.6028 32.2776 21.6176 32.2937 21.6337 32.3098L25.4 36.0762C26.3168 36.993 27.8019 36.993 28.7174 36.0762ZM27.2953 34.6554C27.1653 34.7854 26.9535 34.7854 26.8221 34.6554L23.0799 30.9118L21.5063 29.1144C19.985 27.3747 19.2639 25.076 19.5213 22.7786C19.7786 20.4813 20.9903 18.3997 22.8601 17.0393L22.8614 17.0379C25.3639 15.2178 28.7536 15.2178 31.256 17.0379L31.2587 17.0393C33.1271 18.3997 34.3388 20.4813 34.5961 22.7786C34.8535 25.076 34.1337 27.3747 32.6111 29.1144L31.0389 30.9118L27.2953 34.6554Z" fill="#E41D34"/>
<path fill-rule="evenodd" clip-rule="evenodd" d="M27.1526 19.3536C25.1904 19.3536 23.5981 20.9473 23.5981 22.9095C23.5981 24.8718 25.1904 26.4655 27.1526 26.4655C29.1149 26.4655 30.7086 24.8718 30.7086 22.9095C30.7086 20.9473 29.1149 19.3536 27.1526 19.3536ZM27.1526 21.3641C28.0051 21.3641 28.6981 22.0571 28.6981 22.9095C28.6981 23.762 28.0051 24.455 27.1526 24.455C26.3002 24.455 25.6086 23.762 25.6086 22.9095C25.6086 22.0571 26.3002 21.3641 27.1526 21.3641Z" fill="#E41D34"/>
<path fill-rule="evenodd" clip-rule="evenodd" d="M18.9813 39.9998H35.0654C35.6203 39.9998 36.0707 39.5494 36.0707 38.9945C36.0707 38.4396 35.6203 37.9893 35.0654 37.9893H18.9813C18.4264 37.9893 17.9761 38.4396 17.9761 38.9945C17.9761 39.5494 18.4264 39.9998 18.9813 39.9998Z" fill="#E41D34"/>
</svg>
