<svg width="54" height="54" viewBox="0 0 54 54" fill="none" xmlns="http://www.w3.org/2000/svg">
<circle cx="27" cy="27" r="27" fill="white"/>
<path d="M32.496 29.3827C32.1952 29.2305 30.7305 28.5157 30.4567 28.4137C30.183 28.3162 29.9842 28.2652 29.7847 28.566C29.5897 28.8592 29.0152 29.5305 28.8397 29.7262C28.6642 29.922 28.4917 29.937 28.1955 29.8043C27.8947 29.652 26.934 29.3392 25.7933 28.3162C24.9023 27.5235 24.309 26.547 24.1327 26.2463C23.9572 25.9493 24.1132 25.7812 24.2618 25.6327C24.3982 25.4963 24.5625 25.2893 24.7148 25.1093C24.8595 24.9292 24.906 24.8085 25.0118 24.6135C25.1093 24.4028 25.059 24.2385 24.9847 24.09C24.9105 23.9415 24.3127 22.4693 24.063 21.8828C23.8245 21.3007 23.5747 21.375 23.391 21.375C23.2192 21.3593 23.0198 21.3593 22.821 21.3593C22.6223 21.3593 22.2975 21.4335 22.0237 21.7185C21.75 22.0192 20.9767 22.7378 20.9767 24.1912C20.9767 25.6485 22.047 27.0585 22.1955 27.2692C22.3477 27.4642 24.3007 30.4642 27.297 31.7535C28.0118 32.0542 28.5667 32.2342 29.0002 32.3827C29.715 32.6092 30.3675 32.5777 30.8827 32.5035C31.4527 32.4097 32.6483 31.7805 32.8988 31.0778C33.153 30.3705 33.153 29.7847 33.0788 29.652C33.0045 29.5155 32.8095 29.4412 32.5087 29.3085L32.496 29.3827ZM27.0623 36.75H27.0465C25.2727 36.75 23.5192 36.2692 21.9878 35.3708L21.6285 35.1562L17.8785 36.1327L18.8865 32.484L18.6443 32.109C17.6538 30.5343 17.1284 28.7118 17.1285 26.8515C17.1285 21.4065 21.5858 16.965 27.0697 16.965C29.7263 16.965 32.2185 18 34.0935 19.875C35.0185 20.7889 35.7521 21.8779 36.2518 23.0784C36.7514 24.279 37.0069 25.5669 37.0035 26.8673C36.996 32.3085 32.5425 36.75 27.066 36.75H27.0623ZM35.5192 18.4492C33.2377 16.2457 30.2378 15 27.0465 15C20.4645 15 15.105 20.3362 15.1013 26.8942C15.1013 28.9882 15.648 31.0312 16.695 32.8395L15 39L21.336 37.3478C23.0912 38.2941 25.0532 38.7918 27.0472 38.7967H27.051C33.6368 38.7967 38.9963 33.4605 39 26.898C39 23.7225 37.7618 20.7337 35.5042 18.4875L35.5192 18.4492Z" fill="#E41D34"/>
</svg>
